# This file is brought to you by Roblox Corporation
# Generated by Roblox Studio

mtllib SellPlanks.mtl

g Part1

v -52 6 -17 
v -52 6 -17.5 
v -52 0 -17 
v -52 0 -17.5 
v -39 6 -17.5 
v -52 6 -17.5 
v -39 6 -17 
v -52 6 -17 
v -52 6 -17.5 
v -39 6 -17.5 
v -52 0 -17.5 
v -39 0 -17.5 
v -39 6 -17.5 
v -39 6 -17 
v -39 0 -17.5 
v -39 0 -17 
v -39 0 -17 
v -52 0 -17 
v -39 0 -17.5 
v -52 0 -17.5 
v -39 6 -17 
v -52 6 -17 
v -39 0 -17 
v -52 0 -17 

vn -1 0 0 
vn -1 0 0 
vn -1 0 0 
vn -1 0 0 
vn 0 1 0 
vn 0 1 0 
vn 0 1 0 
vn 0 1 0 
vn 0 0 -1 
vn 0 0 -1 
vn 0 0 -1 
vn 0 0 -1 
vn 1 0 0 
vn 1 0 0 
vn 1 0 0 
vn 1 0 0 
vn 0 -1 0 
vn 0 -1 0 
vn 0 -1 0 
vn 0 -1 0 
vn 0 0 1 
vn 0 0 1 
vn 0 0 1 
vn 0 0 1 

vt 3.3125 1 
vt 3.25 1 
vt 3.3125 0.25 
vt 3.25 0.25 
vt 4.875 1 
vt 3.25 1 
vt 4.875 0.9375 
vt 3.25 0.9375 
vt 4.875 1 
vt 3.25 1 
vt 4.875 0.25 
vt 3.25 0.25 
vt 3.3125 1 
vt 3.25 1 
vt 3.3125 0.25 
vt 3.25 0.25 
vt 4.875 1 
vt 3.25 1 
vt 4.875 0.9375 
vt 3.25 0.9375 
vt 4.875 1 
vt 3.25 1 
vt 4.875 0.25 
vt 3.25 0.25 

usemtl Part1Mtl

f 1/1/1 2/2/2 3/3/3 
f 3/3/3 2/2/2 4/4/4 
f 5/5/5 6/6/6 7/7/7 
f 7/7/7 6/6/6 8/8/8 
f 9/9/9 10/10/10 11/11/11 
f 11/11/11 10/10/10 12/12/12 
f 13/13/13 14/14/14 15/15/15 
f 15/15/15 14/14/14 16/16/16 
f 17/17/17 18/18/18 19/19/19 
f 19/19/19 18/18/18 20/20/20 
f 21/21/21 22/22/22 23/23/23 
f 23/23/23 22/22/22 24/24/24 

g Part2

v -43.6087 14.0421 -17 
v -43.6087 14.0421 -4 
v -42.9627 13.2788 -17 
v -42.9627 13.2788 -4 
v -52.7686 6.28993 -4 
v -43.6087 14.0421 -4 
v -52.7686 6.28993 -17 
v -43.6087 14.0421 -17 
v -43.6087 14.0421 -4 
v -52.7686 6.28993 -4 
v -42.9627 13.2788 -4 
v -52.1226 5.52661 -4 
v -52.7686 6.28993 -4 
v -52.7686 6.28993 -17 
v -52.1226 5.52661 -4 
v -52.1226 5.52661 -17 
v -52.1226 5.52661 -17 
v -42.9627 13.2788 -17 
v -52.1226 5.52661 -4 
v -42.9627 13.2788 -4 
v -52.7686 6.28993 -17 
v -43.6087 14.0421 -17 
v -52.1226 5.52661 -17 
v -42.9627 13.2788 -17 

vn 0.76378 0.645669 0 
vn 0.76378 0.645669 0 
vn 0.76378 0.645669 0 
vn 0.76378 0.645669 0 
vn -0.645669 0.76378 0 
vn -0.645669 0.76378 0 
vn -0.645669 0.76378 0 
vn -0.645669 0.76378 0 
vn 0 0 1 
vn 0 0 1 
vn 0 0 1 
vn 0 0 1 
vn -0.76378 -0.645669 0 
vn -0.76378 -0.645669 0 
vn -0.76378 -0.645669 0 
vn -0.76378 -0.645669 0 
vn 0.645669 -0.76378 0 
vn 0.645669 -0.76378 0 
vn 0.645669 -0.76378 0 
vn 0.645669 -0.76378 0 
vn 0 0 -1 
vn 0 0 -1 
vn 0 0 -1 
vn 0 0 -1 

vt 9.125 -5.75 
vt 7.5 -5.75 
vt 9.125 -5.875 
vt 7.5 -5.875 
vt 9 -5.75 
vt 7.5 -5.75 
vt 9 -7.375 
vt 7.5 -7.375 
vt 9 -5.75 
vt 7.5 -5.75 
vt 9 -5.875 
vt 7.5 -5.875 
vt 9.125 -5.75 
vt 7.5 -5.75 
vt 9.125 -5.875 
vt 7.5 -5.875 
vt 9 -5.75 
vt 7.5 -5.75 
vt 9 -7.375 
vt 7.5 -7.375 
vt 9 -5.75 
vt 7.5 -5.75 
vt 9 -5.875 
vt 7.5 -5.875 

usemtl Part1Mtl

f 25/25/25 26/26/26 27/27/27 
f 27/27/27 26/26/26 28/28/28 
f 29/29/29 30/30/30 31/31/31 
f 31/31/31 30/30/30 32/32/32 
f 33/33/33 34/34/34 35/35/35 
f 35/35/35 34/34/34 36/36/36 
f 37/37/37 38/38/38 39/39/39 
f 39/39/39 38/38/38 40/40/40 
f 41/41/41 42/42/42 43/43/43 
f 43/43/43 42/42/42 44/44/44 
f 45/45/45 46/46/46 47/47/47 
f 47/47/47 46/46/46 48/48/48 

g Part3

v -52 6 -17 
v -51.5 6 -17 
v -52 0 -17 
v -51.5 0 -17 
v -51.5 6 -4 
v -51.5 6 -17 
v -52 6 -4 
v -52 6 -17 
v -51.5 6 -17 
v -51.5 6 -4 
v -51.5 0 -17 
v -51.5 0 -4 
v -51.5 6 -4 
v -52 6 -4 
v -51.5 0 -4 
v -52 0 -4 
v -52 0 -4 
v -52 0 -17 
v -51.5 0 -4 
v -51.5 0 -17 
v -52 6 -4 
v -52 6 -17 
v -52 0 -4 
v -52 0 -17 

vn 0 0 -1 
vn 0 0 -1 
vn 0 0 -1 
vn 0 0 -1 
vn 0 1 0 
vn 0 1 0 
vn 0 1 0 
vn 0 1 0 
vn 1 0 0 
vn 1 0 0 
vn 1 0 0 
vn 1 0 0 
vn 0 0 1 
vn 0 0 1 
vn 0 0 1 
vn 0 0 1 
vn 0 -1 0 
vn 0 -1 0 
vn 0 -1 0 
vn 0 -1 0 
vn -1 0 0 
vn -1 0 0 
vn -1 0 0 
vn -1 0 0 

vt 6.0625 -1.25 
vt 6 -1.25 
vt 6.0625 -2 
vt 6 -2 
vt 7.625 -1.25 
vt 6 -1.25 
vt 7.625 -1.3125 
vt 6 -1.3125 
vt 7.625 -1.25 
vt 6 -1.25 
vt 7.625 -2 
vt 6 -2 
vt 6.0625 -1.25 
vt 6 -1.25 
vt 6.0625 -2 
vt 6 -2 
vt 7.625 -1.25 
vt 6 -1.25 
vt 7.625 -1.3125 
vt 6 -1.3125 
vt 7.625 -1.25 
vt 6 -1.25 
vt 7.625 -2 
vt 6 -2 

usemtl Part1Mtl

f 49/49/49 50/50/50 51/51/51 
f 51/51/51 50/50/50 52/52/52 
f 53/53/53 54/54/54 55/55/55 
f 55/55/55 54/54/54 56/56/56 
f 57/57/57 58/58/58 59/59/59 
f 59/59/59 58/58/58 60/60/60 
f 61/61/61 62/62/62 63/63/63 
f 63/63/63 62/62/62 64/64/64 
f 65/65/65 66/66/66 67/67/67 
f 67/67/67 66/66/66 68/68/68 
f 69/69/69 70/70/70 71/71/71 
f 71/71/71 70/70/70 72/72/72 

g Part4

v -39.5 1 -17 
v -39.5 1 -4 
v -39.5 0 -17 
v -39.5 0 -4 
v -51.5 1 -4 
v -39.5 1 -4 
v -51.5 1 -17 
v -39.5 1 -17 
v -39.5 1 -4 
v -51.5 1 -4 
v -39.5 0 -4 
v -51.5 0 -4 
v -51.5 1 -4 
v -51.5 1 -17 
v -51.5 0 -4 
v -51.5 0 -17 
v -51.5 0 -17 
v -39.5 0 -17 
v -51.5 0 -4 
v -39.5 0 -4 
v -51.5 1 -17 
v -39.5 1 -17 
v -51.5 0 -17 
v -39.5 0 -17 

vn 1 0 0 
vn 1 0 0 
vn 1 0 0 
vn 1 0 0 
vn 0 1 0 
vn 0 1 0 
vn 0 1 0 
vn 0 1 0 
vn 0 0 1 
vn 0 0 1 
vn 0 0 1 
vn 0 0 1 
vn -1 0 0 
vn -1 0 0 
vn -1 0 0 
vn -1 0 0 
vn 0 -1 0 
vn 0 -1 0 
vn 0 -1 0 
vn 0 -1 0 
vn 0 0 -1 
vn 0 0 -1 
vn 0 0 -1 
vn 0 0 -1 

vt 4.625 -1 
vt 3 -1 
vt 4.625 -1.125 
vt 3 -1.125 
vt 4.5 -1 
vt 3 -1 
vt 4.5 -2.625 
vt 3 -2.625 
vt 4.5 -1 
vt 3 -1 
vt 4.5 -1.125 
vt 3 -1.125 
vt 4.625 -1 
vt 3 -1 
vt 4.625 -1.125 
vt 3 -1.125 
vt 4.5 -1 
vt 3 -1 
vt 4.5 -2.625 
vt 3 -2.625 
vt 4.5 -1 
vt 3 -1 
vt 4.5 -1.125 
vt 3 -1.125 

usemtl Part1Mtl

f 73/73/73 74/74/74 75/75/75 
f 75/75/75 74/74/74 76/76/76 
f 77/77/77 78/78/78 79/79/79 
f 79/79/79 78/78/78 80/80/80 
f 81/81/81 82/82/82 83/83/83 
f 83/83/83 82/82/82 84/84/84 
f 85/85/85 86/86/86 87/87/87 
f 87/87/87 86/86/86 88/88/88 
f 89/89/89 90/90/90 91/91/91 
f 91/91/91 90/90/90 92/92/92 
f 93/93/93 94/94/94 95/95/95 
f 95/95/95 94/94/94 96/96/96 

g Part5

v -39.5 6 -17 
v -39 6 -17 
v -39.5 0 -17 
v -39 0 -17 
v -39 6 -4 
v -39 6 -17 
v -39.5 6 -4 
v -39.5 6 -17 
v -39 6 -17 
v -39 6 -4 
v -39 0 -17 
v -39 0 -4 
v -39 6 -4 
v -39.5 6 -4 
v -39 0 -4 
v -39.5 0 -4 
v -39.5 0 -4 
v -39.5 0 -17 
v -39 0 -4 
v -39 0 -17 
v -39.5 6 -4 
v -39.5 6 -17 
v -39.5 0 -4 
v -39.5 0 -17 

vn 0 0 -1 
vn 0 0 -1 
vn 0 0 -1 
vn 0 0 -1 
vn 0 1 0 
vn 0 1 0 
vn 0 1 0 
vn 0 1 0 
vn 1 0 0 
vn 1 0 0 
vn 1 0 0 
vn 1 0 0 
vn 0 0 1 
vn 0 0 1 
vn 0 0 1 
vn 0 0 1 
vn 0 -1 0 
vn 0 -1 0 
vn 0 -1 0 
vn 0 -1 0 
vn -1 0 0 
vn -1 0 0 
vn -1 0 0 
vn -1 0 0 

vt 6.5625 -6.75 
vt 6.5 -6.75 
vt 6.5625 -7.5 
vt 6.5 -7.5 
vt 8.125 -6.75 
vt 6.5 -6.75 
vt 8.125 -6.8125 
vt 6.5 -6.8125 
vt 8.125 -6.75 
vt 6.5 -6.75 
vt 8.125 -7.5 
vt 6.5 -7.5 
vt 6.5625 -6.75 
vt 6.5 -6.75 
vt 6.5625 -7.5 
vt 6.5 -7.5 
vt 8.125 -6.75 
vt 6.5 -6.75 
vt 8.125 -6.8125 
vt 6.5 -6.8125 
vt 8.125 -6.75 
vt 6.5 -6.75 
vt 8.125 -7.5 
vt 6.5 -7.5 

usemtl Part1Mtl

f 97/97/97 98/98/98 99/99/99 
f 99/99/99 98/98/98 100/100/100 
f 101/101/101 102/102/102 103/103/103 
f 103/103/103 102/102/102 104/104/104 
f 105/105/105 106/106/106 107/107/107 
f 107/107/107 106/106/106 108/108/108 
f 109/109/109 110/110/110 111/111/111 
f 111/111/111 110/110/110 112/112/112 
f 113/113/113 114/114/114 115/115/115 
f 115/115/115 114/114/114 116/116/116 
f 117/117/117 118/118/118 119/119/119 
f 119/119/119 118/118/118 120/120/120 

g Part6

v -52 6 -3.5 
v -52 6 -4 
v -52 0 -3.5 
v -52 0 -4 
v -39 6 -4 
v -52 6 -4 
v -39 6 -3.5 
v -52 6 -3.5 
v -52 6 -4 
v -39 6 -4 
v -52 0 -4 
v -39 0 -4 
v -39 6 -4 
v -39 6 -3.5 
v -39 0 -4 
v -39 0 -3.5 
v -39 0 -3.5 
v -52 0 -3.5 
v -39 0 -4 
v -52 0 -4 
v -39 6 -3.5 
v -52 6 -3.5 
v -39 0 -3.5 
v -52 0 -3.5 

vn -1 0 0 
vn -1 0 0 
vn -1 0 0 
vn -1 0 0 
vn 0 1 0 
vn 0 1 0 
vn 0 1 0 
vn 0 1 0 
vn 0 0 -1 
vn 0 0 -1 
vn 0 0 -1 
vn 0 0 -1 
vn 1 0 0 
vn 1 0 0 
vn 1 0 0 
vn 1 0 0 
vn 0 -1 0 
vn 0 -1 0 
vn 0 -1 0 
vn 0 -1 0 
vn 0 0 1 
vn 0 0 1 
vn 0 0 1 
vn 0 0 1 

vt 4.8125 -4.5 
vt 4.75 -4.5 
vt 4.8125 -5.25 
vt 4.75 -5.25 
vt 6.375 -4.5 
vt 4.75 -4.5 
vt 6.375 -4.5625 
vt 4.75 -4.5625 
vt 6.375 -4.5 
vt 4.75 -4.5 
vt 6.375 -5.25 
vt 4.75 -5.25 
vt 4.8125 -4.5 
vt 4.75 -4.5 
vt 4.8125 -5.25 
vt 4.75 -5.25 
vt 6.375 -4.5 
vt 4.75 -4.5 
vt 6.375 -4.5625 
vt 4.75 -4.5625 
vt 6.375 -4.5 
vt 4.75 -4.5 
vt 6.375 -5.25 
vt 4.75 -5.25 

usemtl Part1Mtl

f 121/121/121 122/122/122 123/123/123 
f 123/123/123 122/122/122 124/124/124 
f 125/125/125 126/126/126 127/127/127 
f 127/127/127 126/126/126 128/128/128 
f 129/129/129 130/130/130 131/131/131 
f 131/131/131 130/130/130 132/132/132 
f 133/133/133 134/134/134 135/135/135 
f 135/135/135 134/134/134 136/136/136 
f 137/137/137 138/138/138 139/139/139 
f 139/139/139 138/138/138 140/140/140 
f 141/141/141 142/142/142 143/143/143 
f 143/143/143 142/142/142 144/144/144 

